<svg width="147" height="15" viewBox="0 0 147 15" fill="none" xmlns="http://www.w3.org/2000/svg">
<mask id="mask0" mask-type="alpha" maskUnits="userSpaceOnUse" x="0" y="0" width="147" height="15">
<rect width="147" height="14.1176" rx="7.05882" fill="#C4C4C4"/>
</mask>
<g mask="url(#mask0)">
<path d="M0 5.64705C5.77263 9.41176 11.4693 9.41176 17.09 5.64705C22.7108 1.88235 28.4074 1.88235 34.1801 5.64705C39.9527 9.41176 45.6494 9.41176 51.2701 5.64705C56.8908 1.88235 62.5875 1.88235 68.3601 5.64705C74.1328 9.41176 79.8294 9.41176 85.4502 5.64705C91.0709 1.88235 96.7676 1.88235 102.54 5.64705C108.313 9.41176 114.01 9.41176 119.63 5.64705C125.251 1.88235 130.948 1.88235 136.72 5.64705C142.493 9.41176 148.19 9.41176 153.81 5.64705C159.431 1.88235 165.128 1.88235 170.9 5.64705C176.673 9.41176 182.37 9.41176 187.99 5.64705C193.611 1.88235 199.308 1.88235 205.08 5.64705C210.853 9.41176 216.55 9.41176 222.17 5.64705C227.791 1.88235 233.488 1.88235 239.26 5.64705C245.033 9.41176 250.73 9.41176 256.351 5.64705C261.971 1.88235 267.668 1.88235 273.441 5.64705C279.213 9.41176 284.91 9.41176 290.531 5.64705C296.151 1.88235 301.848 1.88235 307.621 5.64705C313.393 9.41176 319.09 9.41176 324.711 5.64705C330.331 1.88235 336.028 1.88235 341.801 5.64705C347.573 9.41176 353.27 9.41176 358.891 5.64705C364.511 1.88235 370.208 1.88235 375.981 5.64705" stroke="#779555" stroke-width="3"/>
</g>
</svg>
