<svg width="452" height="10" viewBox="0 0 452 10" fill="none" xmlns="http://www.w3.org/2000/svg">
<path d="M1 4.82352C7.90908 8.58823 14.7273 8.58823 21.4545 4.82352C28.1819 1.05883 34.9999 1.05883 41.9091 4.82352C48.8181 8.58823 55.6364 8.58823 62.3636 4.82352C69.0908 1.05883 75.909 1.05883 82.8181 4.82352C89.7273 8.58823 96.5453 8.58823 103.273 4.82352C110 1.05883 116.818 1.05883 123.727 4.82352C130.636 8.58823 137.455 8.58823 144.181 4.82352C150.909 1.05883 157.728 1.05883 164.636 4.82352C171.545 8.58823 178.364 8.58823 185.09 4.82352C191.818 1.05883 198.637 1.05883 205.545 4.82352C212.454 8.58823 219.273 8.58823 225.999 4.82352C232.727 1.05883 239.546 1.05883 246.454 4.82352C253.363 8.58823 260.182 8.58823 266.908 4.82352C273.636 1.05883 280.455 1.05883 287.363 4.82352C294.272 8.58823 301.091 8.58823 307.819 4.82352C314.545 1.05883 321.364 1.05883 328.273 4.82352C335.181 8.58823 342 8.58823 348.728 4.82352C355.454 1.05883 362.273 1.05883 369.182 4.82352C376.09 8.58823 382.909 8.58823 389.637 4.82352C396.363 1.05883 403.181 1.05883 410.091 4.82352C416.999 8.58823 423.818 8.58823 430.546 4.82352C437.272 1.05883 444.09 1.05883 451 4.82352" stroke="#779555" stroke-width="3"/>
</svg>
