<svg width="250" height="69" viewBox="0 0 250 69" fill="none" xmlns="http://www.w3.org/2000/svg">
<path d="M26.5885 0C27.0462 0.0777825 27.5081 0.150994 27.9658 0.233352C29.4434 0.444106 30.847 1.0631 32.0431 2.0315C33.2857 3.07834 34.116 4.60141 34.3652 6.29123C34.5007 7.08337 34.5682 7.88755 34.5667 8.69334C34.5667 19.9489 34.5667 31.206 34.5667 42.4647C34.5678 43.3725 34.4777 44.2777 34.298 45.1642C33.7941 47.6258 32.358 49.2455 30.2459 50.1972C28.3637 50.9687 26.337 51.2278 24.342 50.9521C23.1595 50.8376 22.0072 50.4822 20.945 49.9043C18.7488 48.6918 17.5857 46.7015 17.3128 44.0935C17.2478 43.4432 17.2184 42.7893 17.2246 42.1352C17.2246 30.9285 17.2246 19.7247 17.2246 8.52405C17.1984 7.35885 17.3648 6.19804 17.7159 5.09705C18.0338 4.15472 18.5334 3.29756 19.181 2.58329C19.8285 1.86903 20.609 1.31425 21.4698 0.956279C22.4443 0.526433 23.4715 0.255099 24.5184 0.150997C24.7115 0.150997 24.9047 0.0686305 25.0979 0.0274515L26.5885 0ZM27.9574 25.6225C27.9574 20.3119 27.9574 15.0013 27.9574 9.69078C27.9574 9.1097 27.9574 8.52862 27.8944 7.95212C27.7726 6.43765 27.1638 5.86115 25.7739 5.89775H25.6731C24.6779 5.9435 24.1405 6.38731 23.9935 7.45338C23.8841 8.18844 23.8335 8.93248 23.8423 9.67707C23.8423 20.2738 23.8423 30.8736 23.8423 41.4764C23.8423 42.0026 23.8423 42.5333 23.8969 43.0549C23.9303 43.4151 24.0021 43.7698 24.1111 44.1118C24.1807 44.3772 24.3199 44.6146 24.5116 44.7951C24.7033 44.9755 24.9391 45.091 25.1902 45.1276C25.6168 45.1968 26.0493 45.2136 26.4793 45.1779C26.7831 45.156 27.0722 45.0273 27.3031 44.8112C27.534 44.595 27.6944 44.303 27.76 43.9791C27.8509 43.6483 27.9086 43.3078 27.9322 42.9634C27.97 42.2771 27.9826 41.5908 27.9826 40.8953C27.9658 35.7891 27.9546 30.6982 27.949 25.6225H27.9574Z" fill="black"/>
<path d="M171.578 0L172.901 0.224192C174.381 0.429438 175.788 1.04198 176.991 2.00404C178.288 3.09389 179.142 4.69331 179.372 6.46051C179.462 7.06562 179.507 7.67767 179.506 8.29068C179.506 19.7811 179.506 31.2731 179.506 42.7666C179.544 44.1539 179.273 45.5305 178.717 46.7792C177.968 48.3452 176.71 49.5508 175.189 50.1605C173.306 50.9269 171.28 51.1829 169.285 50.9063C168.116 50.793 166.977 50.4423 165.926 49.8722C163.722 48.6735 162.567 46.706 162.265 44.0843C162.202 43.4767 162.173 42.8655 162.176 42.2541C162.176 31.0352 162.176 19.8147 162.176 8.59268C162.157 7.57506 162.271 6.55963 162.517 5.57745C162.785 4.5306 163.275 3.5667 163.947 2.76274C164.618 1.95878 165.453 1.33704 166.384 0.947118C167.372 0.505393 168.415 0.227779 169.479 0.123546C169.676 0.123546 169.869 0.0411789 170.062 0H171.578ZM172.909 25.5904V10.066C172.909 9.48487 172.909 8.89922 172.909 8.32271C172.882 7.90625 172.816 7.49388 172.712 7.09192C172.636 6.77138 172.469 6.48543 172.234 6.27561C171.999 6.06579 171.709 5.94303 171.406 5.92519C171.139 5.89999 170.871 5.89999 170.604 5.92519C169.689 5.97552 169.168 6.38273 168.979 7.38018C168.866 8.00252 168.81 8.63546 168.811 9.26983C168.811 20.1441 168.811 31.0184 168.811 41.8927C168.798 42.0739 168.798 42.2559 168.811 42.4371C168.865 42.9941 168.949 43.5472 169.063 44.0934C169.121 44.3729 169.258 44.6255 169.455 44.8159C169.651 45.0062 169.897 45.1248 170.159 45.155C170.486 45.216 170.818 45.2405 171.15 45.2281C171.549 45.2614 171.943 45.1236 172.25 44.8441C172.557 44.5646 172.751 44.1655 172.792 43.732C172.884 43.1612 172.926 42.582 172.918 42.0025C172.918 36.515 172.915 31.0443 172.909 25.5904Z" fill="black"/>
<path d="M10.7581 68.1147C10.7203 68.0827 10.6867 68.0323 10.6405 68.0232C10.2157 67.9118 9.8268 67.6761 9.51598 67.3414C9.20515 67.0068 8.98416 66.5859 8.87689 66.1244C8.6815 65.4306 8.55618 64.7156 8.50317 63.9922C8.40147 62.8152 8.45806 61.6283 8.67114 60.4691C8.78821 59.6168 9.18507 58.8398 9.78808 58.2821C10.0929 58.044 10.4402 57.8781 10.8074 57.795C11.1747 57.7119 11.5538 57.7136 11.9205 57.7997C12.2871 57.8859 12.6331 58.0548 12.9363 58.2955C13.2394 58.5362 13.493 58.8433 13.6806 59.1972C13.9684 59.7939 14.144 60.4473 14.1971 61.1189C14.38 62.5962 14.3332 64.0966 14.0585 65.557C13.959 65.9618 13.8181 66.3532 13.6386 66.7238C13.5046 67.0175 13.3183 67.2793 13.0905 67.4937C12.8626 67.7082 12.5979 67.871 12.3117 67.9728C12.1857 68.0186 12.064 68.0735 11.9422 68.1284L10.7581 68.1147ZM9.57813 62.9353H9.64112C9.61379 63.4076 9.61379 63.8814 9.64112 64.3537C9.69798 64.9488 9.81054 65.5359 9.97704 66.1061C10.066 66.4231 10.2502 66.6983 10.5 66.8875C10.7497 67.0767 11.0506 67.1689 11.3543 67.1493C11.6666 67.1699 11.9764 67.0768 12.2348 66.8846C12.4933 66.6925 12.6857 66.4122 12.782 66.0878C12.9303 65.7031 13.0224 65.2956 13.055 64.8799C13.1138 63.8321 13.1389 62.7752 13.1263 61.7228C13.1408 61.0107 13.0088 60.304 12.74 59.6547C12.6257 59.3585 12.4298 59.1082 12.1793 58.9385C11.9288 58.7689 11.6361 58.6882 11.3417 58.7076C11.0557 58.6997 10.7743 58.7875 10.5355 58.9593C10.2967 59.1312 10.112 59.3787 10.0064 59.6684C9.87206 59.9814 9.78147 60.3145 9.73769 60.6568C9.66631 61.4117 9.63271 62.1758 9.57813 62.9353Z" fill="black"/>
<path d="M78.3504 68.1145C78.3252 68.087 78.3042 68.0505 78.279 68.0413C77.2208 67.7622 76.6666 66.9523 76.3684 65.8817C76.1507 65.0423 76.0446 64.1733 76.0535 63.3011C76.0146 62.3393 76.0837 61.3759 76.2592 60.4323C76.3138 60.1852 76.3768 59.9381 76.4524 59.7002C77.1075 57.7465 78.6485 57.5177 79.883 57.8974C80.1789 57.9963 80.4529 58.1608 80.6877 58.3804C80.9226 58.6001 81.1132 58.8703 81.2477 59.174C81.5527 59.8023 81.7357 60.4923 81.7852 61.201C81.957 62.6442 81.9073 64.1085 81.6382 65.5339C81.5481 65.9193 81.4215 66.2935 81.2603 66.6503C81.125 66.9639 80.9316 67.2435 80.6925 67.4719C80.4533 67.7002 80.1735 67.8722 79.8704 67.9772C79.7613 68.0138 79.6563 68.0687 79.5513 68.1145H78.3504ZM80.7816 63.141C80.7354 62.3128 80.7312 61.6905 80.6557 61.082C80.5954 60.5974 80.4812 60.1226 80.3155 59.6682C80.2114 59.3767 80.0254 59.1286 79.7841 58.9593C79.5427 58.79 79.2584 58.7082 78.9718 58.7256C78.6857 58.7074 78.4014 58.7853 78.1573 58.949C77.9132 59.1127 77.7211 59.3542 77.6071 59.6407C77.4818 59.9323 77.3901 60.2396 77.3342 60.5558C77.1244 61.9926 77.1032 63.4546 77.2712 64.898C77.3191 65.3126 77.4165 65.7187 77.561 66.1059C77.6724 66.4101 77.865 66.671 78.1139 66.8548C78.3628 67.0385 78.6565 67.1367 78.9572 67.1367C79.2578 67.1367 79.5515 67.0385 79.8004 66.8548C80.0493 66.671 80.2419 66.4101 80.3533 66.1059C80.4537 65.8766 80.5243 65.6334 80.5633 65.383C80.6556 64.5822 80.7228 63.7495 80.7816 63.141Z" fill="black"/>
<path d="M226.552 68.1145C226.451 68.0599 226.347 68.0111 226.242 67.9681C225.891 67.8699 225.573 67.6679 225.322 67.3844C225.07 67.1009 224.896 66.747 224.818 66.3621C224.713 65.9046 224.675 65.4059 224.6 64.8568L225.154 64.8294C225.322 64.8294 225.486 64.8294 225.692 64.8294C225.692 65.0764 225.725 65.2869 225.746 65.4974C225.754 65.7994 225.833 66.0941 225.976 66.3532C226.118 66.6122 226.32 66.827 226.561 66.9768C226.801 67.1266 227.074 67.2064 227.351 67.2085C227.628 67.2107 227.901 67.135 228.144 66.9889C228.388 66.8607 228.599 66.6682 228.758 66.429C228.917 66.1897 229.018 65.9112 229.054 65.6184C229.089 65.3257 229.057 65.0279 228.961 64.752C228.864 64.4761 228.706 64.2306 228.501 64.0378C228.144 63.7741 227.759 63.5589 227.354 63.3973C226.935 63.2005 226.515 63.0724 226.095 62.8574C225.756 62.67 225.46 62.4015 225.23 62.0721C225 61.7427 224.841 61.3608 224.766 60.955C224.69 60.5493 224.7 60.1302 224.794 59.7291C224.888 59.328 225.064 58.9552 225.309 58.6388C225.689 58.1691 226.213 57.8678 226.783 57.7924C227.329 57.69 227.888 57.7212 228.421 57.8839C228.714 57.9653 228.984 58.1226 229.208 58.3426C229.433 58.5625 229.605 58.8384 229.71 59.1467C229.856 59.5612 229.927 60.0023 229.92 60.4461H228.891C228.849 60.2082 228.816 59.9886 228.765 59.7507C228.718 59.499 228.602 59.2689 228.432 59.0914C228.261 58.9139 228.045 58.7975 227.812 58.7578C227.435 58.6649 227.041 58.7001 226.683 58.8585C226.4 58.9807 226.172 59.2166 226.044 59.5173C225.86 59.9192 225.82 60.3821 225.934 60.8142C226.047 61.2464 226.305 61.6163 226.657 61.8508C226.98 62.0318 227.316 62.1848 227.661 62.3083C228.081 62.4822 228.501 62.6195 228.874 62.8116C229.275 62.9819 229.616 63.2861 229.849 63.6807C230.081 64.0752 230.193 64.5398 230.168 65.0078C230.167 65.3876 230.131 65.7663 230.059 66.1379C229.971 66.5481 229.786 66.9261 229.523 67.2337C229.259 67.5413 228.925 67.7678 228.555 67.8903L228.047 68.0962L226.552 68.1145Z" fill="black"/>
<path d="M236.664 68.1147C236.622 68.0873 236.584 68.0415 236.538 68.0324C236.093 67.9307 235.684 67.6948 235.357 67.3518C235.029 67.0088 234.797 66.5724 234.686 66.0924C234.561 65.6983 234.476 65.29 234.434 64.8753C234.252 63.3776 234.29 61.8577 234.547 60.3731C234.578 60.2181 234.617 60.0654 234.665 59.9155C234.766 59.4958 234.95 59.1053 235.205 58.7719C235.46 58.4384 235.779 58.1701 236.14 57.9858C236.5 57.8016 236.894 57.706 237.292 57.7058C237.69 57.7056 238.083 57.8008 238.444 57.9847C239.322 58.3644 239.704 59.1469 239.834 60.094C239.868 60.3045 239.859 60.5195 239.876 60.7803H238.797C238.755 60.5241 238.725 60.277 238.675 60.0345C238.636 59.697 238.492 59.3841 238.268 59.1478C238.043 58.9114 237.752 58.7658 237.441 58.7351C237.116 58.6741 236.781 58.735 236.492 58.9078C236.203 59.0807 235.976 59.3553 235.849 59.6868C235.596 60.2845 235.47 60.9366 235.48 61.5947C235.48 62.7203 235.48 63.8458 235.555 64.9668C235.602 65.4355 235.726 65.8911 235.921 66.312C236.043 66.6056 236.251 66.8473 236.512 67.0001C236.773 67.153 237.072 67.2086 237.365 67.1585C237.644 67.1593 237.916 67.0591 238.137 66.8736C238.358 66.6881 238.516 66.4278 238.587 66.1336C238.694 65.6965 238.779 65.2536 238.843 64.8067C238.843 64.7335 238.872 64.6649 238.893 64.5688H239.914C239.963 65.0528 239.904 65.5426 239.742 65.9963C239.595 66.7042 239.2 67.3215 238.642 67.7167C238.395 67.8625 238.141 67.9938 237.881 68.1102L236.664 68.1147Z" fill="black"/>
<path d="M54.42 1.03394H64.1702V49.9912C62.2671 50.113 60.3594 50.1237 58.4553 50.0232C58.4553 49.8768 58.4217 49.7212 58.4217 49.5657C58.4217 40.7808 58.4217 31.9944 58.4217 23.2065C58.4217 21.66 58.4217 20.1135 58.4553 18.567C58.5057 15.9499 58.5771 13.3327 58.6401 10.7156C58.6401 10.5005 58.6401 10.2901 58.6401 10.0933C58.3965 10.0064 58.3545 10.1436 58.3335 10.2992C58.2957 10.6607 58.2579 11.0221 58.2285 11.3836C57.9794 14.2936 57.7331 17.2066 57.4895 20.1227C57.2544 22.9091 57.0486 25.7002 56.7799 28.482C56.4985 31.3508 56.1458 34.2151 55.8309 37.0839C55.5509 39.6827 55.271 42.2755 54.9911 44.8621C54.8231 46.4147 54.6523 47.9658 54.4788 49.5153C54.4788 49.6755 54.42 49.8356 54.3864 50.0278H48.3817C47.7043 43.3507 47.0296 36.6751 46.3578 30.0011C45.6775 23.3484 45.0981 16.6774 44.4346 10.043C44.1071 10.0064 44.1323 10.1986 44.1365 10.3587C44.1365 10.9032 44.1617 11.4477 44.1869 11.9921C44.506 18.8553 44.3632 25.7185 44.3842 32.6137C44.3842 38.1774 44.3842 43.7457 44.3842 49.314V49.9546C44.0105 50.0873 39.6687 50.133 38.6819 50.0278C38.5769 49.6526 38.5433 1.7294 38.6567 1.03394H48.3901C48.4531 1.56011 48.5203 2.07712 48.5749 2.59415C48.8226 4.95966 49.062 7.32516 49.3139 9.69067C49.5953 12.3948 49.8934 15.1034 50.1537 17.8075C50.4771 20.9142 50.8256 24.0164 51.0901 27.1277C51.2875 29.4154 51.3799 31.7306 51.51 34.0366C51.552 34.7595 51.5562 35.487 51.5772 36.2145C51.5772 36.3976 51.5772 36.608 51.9047 36.544C51.9047 36.2832 51.9677 36.0041 51.9761 35.725C52.0265 34.0732 52.0601 32.4169 52.1189 30.7652C52.2113 28.148 52.2743 25.5309 52.438 22.9183C52.5892 20.507 52.8579 18.1095 53.0763 15.7028C53.2191 14.0923 53.3576 12.5 53.4962 10.8757C53.6852 8.73899 53.8825 6.60683 54.0757 4.4701C54.1597 3.52756 54.2352 2.585 54.3192 1.64703C54.357 1.45944 54.3906 1.26271 54.42 1.03394Z" fill="black"/>
<path d="M79.291 24.3093C79.48 24.3597 79.6689 24.3963 79.8537 24.4557C80.6221 24.6937 81.4032 24.8858 82.1548 25.1832C84.0948 25.9565 85.1445 27.5304 85.4343 29.7312C85.5134 30.3054 85.5569 30.8847 85.5644 31.4653C85.5644 34.4668 85.5896 37.4683 85.5644 40.4652C85.5741 42.4213 85.1323 44.3487 84.2795 46.0701C83.7936 47.0705 83.1004 47.9338 82.2548 48.5914C81.4093 49.249 80.4348 49.6828 79.4086 49.8585C78.7153 49.9904 78.0129 50.0578 77.3091 50.0598C74.5041 50.0598 71.7033 50.0598 68.9109 50.0598H68.2853V1.05242C68.4238 1.05242 68.5498 1.01126 68.68 1.01126C71.7663 1.01126 74.8526 1.01126 77.9179 1.01126C79.2756 0.995365 80.6158 1.34589 81.8189 2.03157C82.5759 2.48079 83.2418 3.09213 83.7765 3.82887C84.3112 4.56561 84.7037 5.41253 84.9304 6.31874C85.1998 7.25652 85.3413 8.23238 85.3503 9.215C85.3503 12.1799 85.3503 15.1631 85.3503 18.1096C85.3689 19.4171 84.9357 20.6845 84.1367 21.6602C83.5968 22.3091 82.9233 22.8093 82.1716 23.1197C81.3947 23.4492 80.5927 23.7008 79.8033 23.9845C79.6311 24.0439 79.459 24.0897 79.2868 24.14L79.291 24.3093ZM74.8778 44.2033C75.5707 44.2033 76.2089 44.2536 76.8346 44.2033C77.3026 44.1961 77.7532 44.0083 78.1061 43.6732C78.459 43.338 78.6914 42.8774 78.7619 42.3731C78.884 41.8447 78.9502 41.3028 78.9593 40.758C78.9761 37.3783 78.9761 33.9955 78.9593 30.6097C78.949 30.0472 78.8771 29.4881 78.7452 28.9442C78.6728 28.5016 78.4694 28.0969 78.1661 27.7921C77.8628 27.4872 77.4763 27.2989 77.0655 27.2559C76.4567 27.1781 75.8352 27.1827 75.2221 27.1598C75.1098 27.1682 74.9986 27.1897 74.8904 27.2239L74.8778 44.2033ZM74.8778 21.3261C75.5636 21.3949 76.2537 21.3949 76.9395 21.3261C77.3107 21.3101 77.667 21.1632 77.9548 20.9073C78.2426 20.6515 78.4463 20.3007 78.5352 19.9078C78.6717 19.4209 78.7466 18.916 78.7577 18.407C78.7577 15.4421 78.7829 12.459 78.7577 9.51696C78.7349 8.95481 78.6402 8.39888 78.4764 7.86524C78.4015 7.55182 78.2409 7.27063 78.0159 7.05898C77.7909 6.84733 77.5122 6.71521 77.2167 6.68019C76.5616 6.58868 75.8898 6.59784 75.2263 6.57039C75.1088 6.57647 74.9921 6.59486 74.8778 6.62529V21.3261Z" fill="black"/>
<path d="M120.828 23.8608C121.508 24.0255 122.197 24.1627 122.869 24.3595C123.991 24.6453 125.013 25.2813 125.808 26.1897C126.62 27.1987 127.08 28.486 127.11 29.8271C127.177 30.9298 127.215 32.0417 127.24 33.1489C127.291 35.0203 127.312 36.8916 127.362 38.763C127.412 40.4879 127.442 42.2175 127.559 43.9378C127.689 45.768 127.916 47.5982 128.101 49.465C128.101 49.6388 128.126 49.8219 128.139 49.9911C127.765 50.1101 122.39 50.1467 121.571 50.0369C121.466 49.4055 121.34 48.7512 121.252 48.0923C120.997 46.2241 120.857 44.3394 120.832 42.4508C120.803 38.8316 120.795 35.2124 120.765 31.5933C120.772 30.9802 120.728 30.3677 120.635 29.7631C120.566 29.2071 120.338 28.6891 119.983 28.2831C119.628 27.8771 119.164 27.604 118.657 27.5028C118.009 27.3395 117.342 27.2871 116.68 27.3473C116.617 28.6238 116.68 29.8683 116.65 31.1174C116.621 32.3665 116.65 33.6659 116.65 34.9379V50.0643H110.083V1.04302C110.238 1.04302 110.385 1.01099 110.528 1.01099C113.467 1.01099 116.407 1.01099 119.346 1.01099C120.464 1.01533 121.577 1.18148 122.655 1.50511C125.346 2.3287 126.824 4.29157 127.24 7.26104C127.316 7.76189 127.358 8.26803 127.366 8.77551C127.366 11.5208 127.366 14.266 127.366 17.0113C127.351 17.647 127.28 18.2796 127.156 18.901C127.01 19.726 126.683 20.5003 126.204 21.1583C125.724 21.8162 125.106 22.3384 124.402 22.6803C123.398 23.1781 122.33 23.5038 121.236 23.6457C121.114 23.6457 120.996 23.7052 120.874 23.7326L120.828 23.8608ZM116.629 21.2848C116.695 21.3176 116.764 21.3407 116.835 21.3534C117.467 21.359 118.099 21.33 118.729 21.2665C119.211 21.2302 119.666 21.0092 120.014 20.6424C120.361 20.2757 120.578 19.7868 120.627 19.2624C120.688 18.888 120.716 18.508 120.711 18.1277C120.711 15.1994 120.711 12.2711 120.711 9.34286C120.719 9.16148 120.719 8.97975 120.711 8.79838C120.702 8.36383 120.557 7.94555 120.301 7.61274C120.044 7.27992 119.691 7.05253 119.3 6.9682C118.435 6.7257 117.553 6.85381 116.642 6.84923L116.629 21.2848Z" fill="black"/>
<path d="M130.935 50.0691V1.04317C131.095 1.04317 131.238 1.01114 131.381 1.01114C134.085 1.01114 136.789 1.01114 139.493 1.01114C140.796 1.00474 142.092 1.20195 143.344 1.59678C144.281 1.88007 145.141 2.40754 145.85 3.13368C146.559 3.85982 147.095 4.76285 147.413 5.76501C147.808 6.92589 148.046 8.14369 148.118 9.37962C148.185 10.5006 148.223 11.6307 148.223 12.7563C148.223 22.1268 148.223 31.4958 148.223 40.8633C148.262 42.3027 148.018 43.7347 147.509 45.0635C146.304 48.0422 144.188 49.6665 141.211 49.9822C140.564 50.0508 139.913 50.0508 139.262 50.0554H130.935V50.0691ZM137.541 6.89058V44.2171C138.345 44.2685 139.152 44.2532 139.955 44.1713C140.326 44.1348 140.675 43.9611 140.943 43.6789C141.211 43.3968 141.382 43.0232 141.429 42.6203C141.558 41.8349 141.624 41.0388 141.626 40.241C141.626 30.66 141.626 21.0791 141.626 11.4981C141.626 10.9856 141.656 10.4731 141.626 9.96985C141.582 9.37464 141.495 8.78413 141.366 8.20373C141.297 7.85069 141.123 7.53235 140.871 7.29819C140.619 7.06404 140.303 6.92717 139.972 6.90887C139.174 6.86312 138.372 6.89058 137.541 6.89058Z" fill="black"/>
<path d="M183.113 50.0691V1.03394C183.302 1.03394 183.466 1.03394 183.625 1.03394C186.246 1.03394 188.866 1.03394 191.486 1.03394C192.653 1.03446 193.816 1.17563 194.954 1.45487C196.12 1.69973 197.196 2.30428 198.055 3.19655C198.914 4.08883 199.52 5.23124 199.8 6.48787C200.071 7.50057 200.24 8.54222 200.304 9.5946C200.354 10.4822 200.396 11.3699 200.396 12.2621C200.396 21.8065 200.396 31.354 200.396 40.9045C200.432 42.3432 200.19 43.7741 199.687 45.1047C198.511 48.0193 196.441 49.6344 193.556 50.0096C192.974 50.0714 192.39 50.0989 191.805 50.092C189.105 50.092 186.401 50.092 183.701 50.092L183.113 50.0691ZM189.71 44.1942C190.52 44.1942 191.284 44.24 192.044 44.1942C192.416 44.1752 192.771 44.0197 193.052 43.7531C193.332 43.4865 193.522 43.1243 193.59 42.7255C193.654 42.4992 193.696 42.2661 193.716 42.03C193.758 41.4169 193.804 40.7992 193.804 40.1998C193.804 30.4541 193.804 20.7099 193.804 10.9672C193.823 10.603 193.823 10.2379 193.804 9.87372C193.746 9.29852 193.652 8.72829 193.523 8.16706C193.447 7.85204 193.287 7.56891 193.062 7.35434C192.838 7.13978 192.559 7.00367 192.263 6.96371C191.415 6.84899 190.558 6.82602 189.706 6.8951L189.71 44.1942Z" fill="black"/>
<path d="M238.469 27.3429V49.973C238.087 50.0874 232.649 50.1194 231.957 50.0233C231.852 49.6207 231.797 2.37477 231.906 1.06619C232.029 1.04366 232.152 1.02837 232.276 1.02042C235.282 1.02042 238.285 0.997544 241.287 1.02042C242.574 1.01509 243.853 1.25193 245.066 1.72048C246.061 2.08645 246.947 2.739 247.629 3.60896C248.311 4.47892 248.765 5.53387 248.942 6.66194C249.081 7.33664 249.159 8.02484 249.173 8.71631C249.173 11.6263 249.173 14.5363 249.173 17.4462C249.168 18.5259 248.91 19.5862 248.421 20.5255C247.784 21.7194 246.752 22.6032 245.536 22.9962C244.718 23.2891 243.857 23.4538 243.017 23.6597C242.904 23.6871 242.786 23.7237 242.673 23.7603V23.8701L243.386 24.0166C244.444 24.179 245.468 24.543 246.41 25.0918C247.113 25.5051 247.708 26.1051 248.141 26.8362C248.574 27.5673 248.831 28.4057 248.887 29.2737C249.013 30.6464 249.059 32.0648 249.097 33.4603C249.16 35.5146 249.164 37.5781 249.227 39.6234C249.307 42.2954 249.4 44.9629 249.706 47.6212C249.777 48.2481 249.87 48.8795 249.95 49.5063C249.95 49.6665 249.979 49.8266 250 50.0233H243.428C243.328 49.4377 243.21 48.8566 243.126 48.2664C242.875 46.5435 242.735 44.8037 242.706 43.0595C242.664 39.2436 242.656 35.4231 242.626 31.6209C242.627 31.0577 242.592 30.4951 242.521 29.9372C242.48 29.3221 242.247 28.7409 241.862 28.2892C241.476 27.8376 240.961 27.5426 240.401 27.4527C239.77 27.2788 239.114 27.2415 238.469 27.3429ZM238.499 21.3262C239.25 21.4154 240.01 21.3846 240.754 21.2347C241.206 21.1645 241.623 20.9311 241.939 20.5719C242.255 20.2128 242.451 19.7486 242.496 19.2535C242.554 18.8601 242.585 18.4624 242.589 18.0639C242.589 15.1722 242.589 12.2806 242.589 9.37059C242.591 9.11634 242.574 8.86232 242.538 8.61108C242.5 8.19896 242.338 7.81206 242.078 7.5102C241.817 7.20834 241.473 7.0083 241.098 6.94104C240.236 6.80101 239.363 6.76879 238.495 6.84497L238.499 21.3262Z" fill="black"/>
<path d="M93.74 50.0371H87.8613C87.7773 49.639 88.55 42.0346 89.0287 37.8206C89.4947 33.7256 89.8685 29.626 90.2884 25.5264C90.7083 21.4268 91.1282 17.3684 91.5481 13.2916C91.968 9.2149 92.3879 5.13818 92.8078 1.03857H102.747C104.427 17.3699 106.116 33.7012 107.815 50.0325H101.156C100.736 45.6218 100.316 41.2202 99.8958 36.7912H95.1509C94.7016 41.179 94.2229 45.6035 93.74 50.0371ZM97.4352 10.011C96.8977 16.7781 96.3392 23.5498 95.8185 30.3215C96.9693 30.4225 98.1262 30.4072 99.2744 30.2757C99.2744 30.1568 99.2744 30.0286 99.2744 29.9051L98.9846 25.6682C98.7915 22.8772 98.5997 20.0877 98.4094 17.2997C98.2876 15.5245 98.1784 13.7492 98.065 11.9739C98.0272 11.4111 97.9937 10.8483 97.9517 10.2901C97.9307 9.98815 97.7963 9.86005 97.4352 10.011Z" fill="black"/>
<path d="M221.278 43.6816H229.433C229.548 45.7764 229.564 47.8762 229.483 49.9729C229.139 50.0872 215.433 50.1284 214.665 50.0095V1.09797C215.005 0.988163 228.58 0.946972 229.29 1.05678C229.382 1.45485 229.412 6.54732 229.32 7.38005H227.35H221.312C221.207 7.8376 221.173 19.1893 221.274 20.0129C221.904 20.0769 222.534 20.0129 223.193 20.0449H229.021V26.3864H221.32C221.207 26.8303 221.169 42.7803 221.278 43.6816Z" fill="black"/>
<path d="M15.0159 43.6681V50.0326C13.7561 50.1058 12.5258 50.0326 11.2871 50.0646C10.0484 50.0967 8.76765 50.0646 7.53313 50.0646H0V1.10724C0.348523 0.997432 5.62256 0.951693 6.54636 1.06608C6.57995 2.22367 6.54636 3.39955 6.54636 4.57087C6.54636 5.74218 6.54636 6.93638 6.54636 8.11685V43.6773L15.0159 43.6681Z" fill="black"/>
<path d="M210.667 50.0371H204.209C204.096 49.639 204.062 1.72495 204.176 1.04321H210.68L210.667 50.0371Z" fill="black"/>
<path d="M20.6342 57.9891L22.423 65.7264H22.549L24.3336 57.98H26.1686V67.8678H25.123V59.4487H25.0096C24.321 62.249 23.7289 65.0721 23.0319 67.8906H21.9485C21.2907 65.0568 20.6356 62.2322 19.9834 59.4167H19.8574V67.8723H18.8622C18.7656 67.4788 18.7363 58.7533 18.8328 57.9846L20.6342 57.9891Z" fill="black"/>
<path d="M205.662 57.9709H207.023L209.962 66.1425C210.086 65.4868 210.13 64.816 210.092 64.1477C210.092 63.4568 210.092 62.7751 210.092 62.075V57.9984H211.054C211.167 58.3553 211.217 66.8243 211.1 67.8857H210.382H209.668C208.719 65.2503 207.776 62.6317 206.838 60.0299H206.762C206.762 60.0299 206.733 60.0299 206.733 60.0573C206.733 62.6332 206.733 65.2137 206.733 67.8354H205.7C205.587 67.4785 205.557 58.7671 205.662 57.9709Z" fill="black"/>
<path d="M30.8589 57.9664C31.9423 57.9664 32.9584 57.9206 33.9704 57.9664C35.142 58.0304 35.839 58.8814 35.9104 60.1626C35.965 61.1737 35.6795 61.9927 34.806 62.4502L34.6465 62.56C34.7892 62.6378 34.8732 62.6882 34.9614 62.7293C35.3141 62.8786 35.6186 63.138 35.8367 63.4749C36.0548 63.8118 36.1769 64.2114 36.1875 64.6235C36.2233 65.04 36.2106 65.4597 36.1498 65.8726C36.0919 66.3264 35.906 66.7493 35.6179 67.0829C35.3298 67.4165 34.9536 67.6443 34.5415 67.7348C34.3336 67.801 34.1195 67.8409 33.9032 67.8538C32.9332 67.8538 31.9675 67.8538 31.0017 67.8538C30.9527 67.8442 30.9048 67.8289 30.8589 67.808V57.9664ZM31.9423 66.8792C31.9987 66.9055 32.0579 66.9239 32.1186 66.9341C32.6015 66.9341 33.0802 66.9341 33.5631 66.9341C33.9354 66.9605 34.3022 66.8251 34.5831 66.5576C34.8641 66.29 35.0363 65.9122 35.0622 65.5066C35.0984 65.1662 35.0842 64.8218 35.0202 64.4863C34.9766 64.1483 34.8275 63.8369 34.5982 63.6045C34.3688 63.3721 34.073 63.2327 33.7605 63.2098C33.1549 63.173 32.5479 63.173 31.9423 63.2098V66.8792ZM31.9423 62.2215C32.5343 62.2215 33.1012 62.2672 33.6597 62.2215C33.9454 62.1915 34.2124 62.0533 34.4142 61.8309C34.616 61.6085 34.7398 61.3161 34.764 61.0044C34.7997 60.7344 34.7997 60.4601 34.764 60.19C34.7422 59.8774 34.6192 59.5835 34.417 59.3606C34.2147 59.1376 33.9463 59.0003 33.6597 58.973C33.1012 58.9135 32.5343 58.973 31.9381 58.973L31.9423 62.2215Z" fill="black"/>
<path d="M146.476 57.98C147.665 57.98 148.781 57.9251 149.894 57.98C150.375 58.0187 150.826 58.2483 151.162 58.6252C151.498 59.0022 151.695 59.5003 151.717 60.0252C151.745 60.4059 151.726 60.789 151.662 61.1645C151.632 61.5534 151.501 61.9251 151.285 62.2362C151.069 62.5473 150.776 62.7849 150.44 62.9215C150.495 62.9718 150.532 63.0313 150.583 63.0496C151.305 63.3104 151.561 63.9281 151.624 64.683C151.67 65.2229 151.67 65.772 151.721 66.3119C151.771 66.8518 151.847 67.3414 151.918 67.8904C151.679 67.8904 151.381 67.8904 151.078 67.8904C150.994 67.9007 150.91 67.8742 150.844 67.8167C150.778 67.7592 150.735 67.6755 150.726 67.5839C150.667 67.227 150.6 66.8701 150.57 66.5132C150.52 65.9138 150.511 65.3144 150.461 64.7196C150.39 63.896 150.075 63.5391 149.34 63.4522C148.92 63.4065 148.5 63.4248 148.08 63.4202C147.933 63.4202 147.786 63.4202 147.572 63.4476C147.522 64.9118 147.572 66.3576 147.543 67.8447H146.468C146.468 64.5732 146.476 61.2834 146.476 57.98ZM147.602 62.4319C148.231 62.4319 148.832 62.4822 149.424 62.4319C149.702 62.4043 149.964 62.2741 150.165 62.0629C150.367 61.8516 150.496 61.5719 150.532 61.2697C150.584 60.9481 150.598 60.6207 150.574 60.2952C150.569 59.9976 150.472 59.7105 150.299 59.48C150.126 59.2494 149.888 59.0886 149.621 59.0232C148.955 58.8813 148.272 58.8535 147.597 58.9408L147.602 62.4319Z" fill="black"/>
<path d="M116.575 67.8857H115.512C115.318 67.4794 115.219 67.0264 115.227 66.568C115.181 65.987 115.168 65.4059 115.122 64.8294C115.055 63.9144 114.702 63.5117 113.862 63.4568C113.337 63.4202 112.808 63.4568 112.216 63.4568V67.8766H111.149V57.9481C112.363 57.9756 113.564 57.8246 114.748 58.0351C115.181 58.1179 115.575 58.3578 115.867 58.7158C116.159 59.0738 116.332 59.5289 116.356 60.007C116.412 60.5328 116.367 61.0654 116.226 61.5718C116.147 61.8866 115.999 62.1759 115.795 62.4149C115.591 62.6539 115.337 62.8356 115.055 62.9444C115.11 63 115.172 63.0477 115.239 63.0862C115.957 63.3562 116.209 63.9738 116.264 64.7288C116.31 65.3281 116.314 65.9275 116.365 66.5223C116.415 66.9524 116.503 67.3916 116.575 67.8857ZM112.25 62.4502C112.854 62.4502 113.404 62.4869 113.929 62.4502C114.237 62.4448 114.534 62.3197 114.764 62.0974C114.995 61.8751 115.146 61.5703 115.189 61.2378C115.235 60.971 115.252 60.6991 115.239 60.428C115.257 60.0749 115.149 59.7279 114.938 59.4594C114.727 59.1909 114.429 59.0216 114.106 58.9867C113.486 58.9431 112.865 58.9431 112.245 58.9867L112.25 62.4502Z" fill="black"/>
<path d="M51.4303 67.8813H50.3679V57.9893C50.5023 57.9893 50.6157 57.9527 50.729 57.9527C51.594 57.9527 52.4619 57.9527 53.3325 57.9527C53.5327 57.9513 53.7326 57.9728 53.9287 58.0168C54.4098 58.1185 54.841 58.4058 55.1434 58.8261C55.4457 59.2463 55.5989 59.7712 55.5748 60.3045C55.5702 60.77 55.5037 61.2323 55.3774 61.6771C55.2137 62.281 54.9575 62.5418 54.2689 62.9125C54.3416 62.9751 54.4204 63.0288 54.504 63.0726C54.7501 63.1674 54.9664 63.3364 55.1277 63.56C55.2891 63.7836 55.3888 64.0525 55.4152 64.3354C55.474 64.8578 55.5076 65.3831 55.516 65.9093C55.5051 66.5748 55.6164 67.236 55.8435 67.8539H54.7224C54.5347 67.535 54.4396 67.1619 54.4494 66.7833C54.399 66.2205 54.3822 65.6577 54.3486 65.0949C54.3424 64.8951 54.3214 64.6962 54.2857 64.5001C54.2664 64.2129 54.1468 63.9447 53.9515 63.7507C53.7562 63.5566 53.5001 63.4515 53.2359 63.4569C52.6606 63.4066 52.0769 63.4569 51.4387 63.4569L51.4303 67.8813ZM51.4303 58.9456V62.4641C51.9762 62.4641 52.4885 62.487 53.0007 62.4641C53.3396 62.4731 53.6692 62.3432 53.9243 62.1C54.1793 61.8568 54.3413 61.5181 54.378 61.1509C54.413 60.935 54.4271 60.7157 54.42 60.4966C54.4444 60.1183 54.3304 59.745 54.1031 59.4578C53.8758 59.1707 53.5535 58.9931 53.2065 58.9639C52.6207 58.9239 52.0334 58.9178 51.4471 58.9456H51.4303Z" fill="black"/>
<path d="M174.946 62.9535C175.2 63.0347 175.432 63.1834 175.62 63.3863C175.808 63.5891 175.947 63.8397 176.025 64.1156C176.097 64.432 176.139 64.7554 176.151 65.081C176.193 65.6438 176.197 66.2065 176.248 66.7693C176.281 67.1216 176.374 67.4739 176.453 67.8949C176.127 67.913 175.801 67.913 175.475 67.8949C175.383 67.8949 175.265 67.7164 175.24 67.5974C175.165 67.2979 175.116 66.9916 175.093 66.6824C175.047 66.1425 175.034 65.5934 174.996 65.0536C174.983 64.836 174.952 64.6202 174.904 64.4084C174.864 64.1646 174.751 63.9421 174.582 63.7763C174.413 63.6105 174.198 63.511 173.972 63.4934C173.343 63.4432 172.712 63.4279 172.082 63.4476V67.8811H171.036V58.0075C171.147 57.9807 171.259 57.9623 171.372 57.9526H174.022C174.477 57.9432 174.924 58.0766 175.311 58.337C175.622 58.5559 175.873 58.8615 176.038 59.222C176.204 59.5825 176.277 59.9846 176.252 60.3867C176.24 60.8387 176.17 61.2867 176.046 61.7181C175.963 62.0026 175.82 62.2621 175.629 62.4764C175.438 62.6907 175.204 62.854 174.946 62.9535ZM172.107 62.3999C172.157 62.4285 172.211 62.4486 172.267 62.4593C172.716 62.4593 173.165 62.4593 173.615 62.4593C173.804 62.4692 173.993 62.4373 174.171 62.3656C174.348 62.2938 174.511 62.1837 174.649 62.0419C174.786 61.9 174.896 61.7293 174.972 61.54C175.047 61.3507 175.087 61.1468 175.089 60.9403C175.099 60.7773 175.099 60.6137 175.089 60.4508C175.101 60.1008 174.997 59.7579 174.794 59.4859C174.592 59.2139 174.305 59.0316 173.988 58.9729C173.361 58.8736 172.725 58.8613 172.095 58.9363L172.107 62.3999Z" fill="black"/>
<path d="M86.4126 67.9043V58.035C86.4672 58.0076 86.5092 57.9618 86.5512 57.9618C87.4708 57.9618 88.3903 57.9252 89.3015 57.9618C90.683 58.0488 91.5354 58.8769 91.821 60.5287C92.1017 62.1039 92.0817 63.7253 91.7622 65.2917C91.6948 65.5722 91.6063 65.8461 91.4977 66.1107C91.3107 66.6517 90.9717 67.1146 90.5291 67.4334C90.0865 67.7522 89.5629 67.9106 89.0328 67.886C88.172 67.9135 87.3196 67.9043 86.4126 67.9043ZM87.496 66.9206C88.0502 66.9206 88.5499 66.9572 89.0454 66.9206C89.3086 66.894 89.5616 66.7965 89.7815 66.6367C90.0014 66.4769 90.1814 66.26 90.3051 66.0055C90.4576 65.7049 90.572 65.3832 90.6452 65.0492C90.8477 64.0525 90.9044 63.0271 90.8132 62.0111C90.7776 61.4506 90.689 60.8955 90.5487 60.3548C90.4724 60.027 90.3144 59.7287 90.092 59.4929C89.8697 59.257 89.5917 59.0929 89.289 59.0188C88.692 58.9131 88.0848 58.8947 87.4834 58.9639L87.496 66.9206Z" fill="black"/>
<path d="M126.946 57.989C127.975 57.989 128.974 57.9204 129.965 57.989C130.48 58.0168 130.973 58.2265 131.37 58.5864C131.766 58.9463 132.044 59.4368 132.162 59.9839C132.252 60.2818 132.316 60.5881 132.355 60.899C132.564 62.392 132.514 63.9147 132.208 65.3876C132.118 65.7554 131.988 66.1102 131.821 66.4446C131.616 66.8863 131.301 67.2564 130.912 67.5127C130.523 67.7691 130.076 67.9016 129.621 67.895C128.739 67.895 127.857 67.895 126.988 67.895C126.879 67.4832 126.845 58.7623 126.946 57.989ZM128.013 58.9453V66.9113C128.559 66.9113 129.075 66.9525 129.583 66.9113C129.817 66.8811 130.042 66.7949 130.242 66.6588C130.441 66.5227 130.611 66.3402 130.738 66.1243C130.985 65.7092 131.147 65.241 131.213 64.7516C131.371 63.6928 131.397 62.6152 131.288 61.5488C131.239 61.0436 131.127 60.5481 130.956 60.0754C130.857 59.7712 130.68 59.5045 130.445 59.3073C130.211 59.1101 129.929 58.9908 129.634 58.9636C129.095 58.9254 128.556 58.9193 128.017 58.9453H128.013Z" fill="black"/>
<path d="M60.2314 67.84V58.0119C60.3372 57.9806 60.4455 57.9607 60.5548 57.9524C61.34 57.9524 62.1252 57.9524 62.9062 57.9524C63.5241 57.9256 64.1302 58.142 64.6136 58.5621C65.097 58.9822 65.4256 59.5778 65.5391 60.2402C65.731 61.1627 65.8087 62.1091 65.77 63.0541C65.8012 63.8542 65.7132 64.6546 65.5097 65.4242C65.3795 65.8729 65.2005 66.303 64.9764 66.7053C64.7794 67.0577 64.5043 67.3505 64.1763 67.5568C63.8483 67.7631 63.478 67.8762 63.0994 67.8858C62.2008 67.9269 61.298 67.8858 60.3994 67.8858C60.3419 67.8783 60.2854 67.8629 60.2314 67.84ZM61.2854 66.9249C61.8355 66.9249 62.3184 66.9569 62.7971 66.9249C63.0574 66.9151 63.3109 66.8309 63.532 66.6807C63.753 66.5305 63.934 66.3197 64.0568 66.0693C64.2626 65.6355 64.4151 65.1739 64.5103 64.6967C64.6789 63.6744 64.7072 62.6304 64.5943 61.5991C64.5509 61.1118 64.4521 60.6323 64.3003 60.1715C64.2096 59.8667 64.0444 59.5944 63.8225 59.3841C63.6005 59.1737 63.3303 59.0331 63.0406 58.9773C62.4591 58.8871 61.8697 58.8748 61.2854 58.9407V66.9249Z" fill="black"/>
<path d="M187.682 67.8813H186.653V57.9938C186.769 57.9718 186.887 57.958 187.006 57.9526C187.216 57.9526 187.426 57.9526 187.698 57.9526V61.9973H190.885V57.9892H191.944V67.8631H190.898C190.898 66.3074 190.898 64.738 190.898 63.132H187.745C187.648 64.6877 187.74 66.2616 187.682 67.8813Z" fill="black"/>
<path d="M245.264 67.8767H244.222V57.9984H245.247V61.9241C246.311 62.0561 247.384 62.0714 248.451 61.9699C248.476 60.6705 248.451 59.3482 248.451 57.9893H249.408C249.517 58.3736 249.551 67.1126 249.442 67.8676H248.455C248.421 66.2982 248.455 64.7288 248.43 63.1274H245.276C245.239 63.6419 245.229 64.1582 245.247 64.6739C245.247 65.2001 245.247 65.7309 245.247 66.257L245.264 67.8767Z" fill="black"/>
<path d="M142.483 67.8767H141.366C141.148 66.9616 140.946 66.0877 140.707 65.1864H137.767C137.541 66.0648 137.318 66.9525 137.083 67.8722H135.97C136.835 64.5641 137.692 61.2973 138.561 57.9893H140.056C140.883 61.2607 141.685 64.5458 142.483 67.8767ZM139.342 59.4305H139.229L137.994 64.1615H140.471C140.127 62.5555 139.753 60.9907 139.359 59.4305H139.342Z" fill="black"/>
<path d="M46.3241 67.8767H45.2029L44.5563 65.2047H41.6169L40.9451 67.8722H39.8281L42.4232 57.9709H43.9138C44.7201 61.2561 45.5263 64.5458 46.3241 67.8767ZM44.3253 64.1706C43.9348 62.5555 43.5611 60.9953 43.1874 59.4396H43.0656C42.6457 60.9999 42.251 62.5601 41.8353 64.1661L44.3253 64.1706Z" fill="black"/>
<path d="M166.632 58.9774H163.163C163.042 60.0401 163.028 61.1142 163.121 62.1802H166.418V63.2188H163.1V66.8791H166.766V67.7942C165.187 67.9309 163.602 67.9447 162.021 67.8354V57.98H166.64C166.64 58.1401 166.669 58.3003 166.669 58.4375C166.669 58.5748 166.644 58.7395 166.632 58.9774Z" fill="black"/>
<path d="M196.651 57.9753H201.203V58.9591H197.692C197.663 60.0526 197.692 61.0776 197.692 62.162C198.805 62.194 199.88 62.162 201.001 62.1849V63.1686C199.93 63.2556 198.834 63.1686 197.717 63.2281V66.8611H201.396V67.854H196.693C196.579 67.4834 196.55 58.744 196.651 57.9753Z" fill="black"/>
<path d="M102.172 67.8676V57.9893H106.761V58.941C105.611 59.0279 104.452 58.9409 103.31 58.9959C103.181 60.0506 103.171 61.1185 103.28 62.1758H106.568V63.2189H103.247V66.8793H106.933V67.8767L102.172 67.8676Z" fill="black"/>
<path d="M220.896 58.0119V58.9682H218.629V67.8721H217.55V59.0231C216.79 58.8858 216.055 59.0231 215.295 58.927V58.0119C217.16 57.8967 219.031 57.8967 220.896 58.0119Z" fill="black"/>
<path d="M1.04971 66.8748H4.71967V67.8677H0.00415039V57.9846H1.04971V66.8748Z" fill="black"/>
<path d="M156.34 57.948H156.928C157.058 57.948 157.188 57.948 157.348 57.98V67.8674H156.34V57.948Z" fill="black"/>
<path d="M97.4479 67.8857H96.5409C96.4359 67.474 96.4023 58.735 96.5073 57.9893H97.4185C97.5276 58.3827 97.5528 67.1262 97.4479 67.8857Z" fill="black"/>
</svg>
