<svg width="40" height="35" viewBox="0 0 40 35" fill="none" xmlns="http://www.w3.org/2000/svg">
<path d="M38.6589 11.2974C40.7868 14.7256 40.1165 18.2083 38.4934 21.646C36.6942 25.4608 33.8097 28.285 30.2396 30.4259C25.602 33.211 20.6204 34.8235 15.1482 34.5386C11.8381 34.3672 8.7527 33.451 6.09403 31.3834C2.8762 28.8831 1.71177 25.6003 2.60666 21.6495C3.74981 16.6041 6.73712 12.7893 10.8475 9.79841C13.6137 7.78874 16.698 6.46945 20.1038 6.03324C23.0107 5.66204 25.7427 6.06515 27.8765 8.33726C28.3801 8.87278 28.769 9.51941 29.2182 10.1211C29.0905 10.1944 29.0527 10.2323 29.0338 10.2252C25.6244 8.72146 22.2021 9.01818 18.7845 10.1731C16.2748 11.0208 13.966 12.2289 12.1065 14.1617C10.2469 16.0946 9.15109 18.4175 9.11917 21.1507C9.07661 25.8095 12.2814 29.0215 16.5514 29.4872C20.6641 29.9353 24.3926 28.7082 27.8729 26.6879C32.5058 23.9973 35.8844 20.1706 37.7014 15.0826C38.1458 13.8378 38.3586 12.5091 38.6589 11.2974Z" fill="#1A2650"/>
<path d="M10.9977 24.4607C14.1895 25.7812 17.4038 25.5979 20.6287 24.6037C22.5174 24.0369 24.3076 23.1828 25.9366 22.0716C28.0846 20.5891 29.6994 18.6752 30.4288 16.1501C31.5897 12.1438 30.5269 8.89169 27.5502 6.54865C26.095 5.40314 24.3371 4.92437 22.4918 4.8428C18.9193 4.68558 15.6613 5.78853 12.5617 7.43054C9.90655 8.83731 7.65809 10.7583 5.71462 13.0576C3.56107 15.5772 2.1005 18.6141 1.47659 21.8694C1.40802 22.2241 1.35837 22.5787 1.27799 23.0646C0.192766 21.1081 -0.24818 19.206 0.137204 17.1077C0.801576 13.5021 2.51098 10.4699 5.04434 7.8774C7.79995 5.05796 11.1041 3.11331 14.777 1.72191C16.8667 0.91309 19.0521 0.37748 21.2789 0.128361C25.0547 -0.268843 28.7028 0.219386 32.0566 2.10493C32.9078 2.5837 33.5745 3.37929 34.4008 3.91244C35.2272 4.4456 35.7674 5.23883 36.2793 6.02969C37.5903 8.05709 37.7298 10.302 37.277 12.5954C36.667 15.6938 35.2189 18.4021 33.1501 20.7605C32.2529 21.7831 31.2137 22.6863 30.2089 23.6107C27.4829 26.1169 24.2225 27.5769 20.6334 28.2767C17.9145 28.8063 15.2274 28.6727 12.9281 26.8806C12.1326 26.2599 11.5296 25.3934 10.8393 24.6345L10.9977 24.4607Z" fill="#779555"/>
</svg>
