<svg width="41" height="35" viewBox="0 0 41 35" fill="none" xmlns="http://www.w3.org/2000/svg">
<path d="M38.8472 11.2973C40.9854 14.7255 40.3119 18.2082 38.6809 21.6459C36.8729 25.4607 33.9743 28.2849 30.3868 30.4258C25.7266 33.2109 20.7208 34.8234 15.2219 34.5385C11.8957 34.3671 8.79529 33.4509 6.12367 31.3833C2.89016 28.8831 1.72006 25.6002 2.61932 21.6494C3.76803 16.604 6.76989 12.7892 10.9003 9.79831C13.68 7.78865 16.7793 6.46936 20.2017 6.03314C23.1227 5.66195 25.868 6.06506 28.0122 8.33717C28.5183 8.87268 28.9091 9.51932 29.3605 10.121C29.2322 10.1943 29.1942 10.2322 29.1752 10.2251C25.7492 8.72137 22.3102 9.01809 18.8759 10.1731C16.354 11.0207 14.034 12.2288 12.1654 14.1617C10.2968 16.0945 9.19562 18.4174 9.16354 21.1506C9.12078 25.8094 12.3412 29.0214 16.632 29.4871C20.7647 29.9352 24.5114 28.7081 28.0086 26.6878C32.6641 23.9972 36.0591 20.1706 37.885 15.0826C38.3316 13.8377 38.5454 12.509 38.8472 11.2973Z" fill="white"/>
<path d="M11.0513 24.4607C14.2586 25.7812 17.4886 25.5979 20.7292 24.6037C22.6271 24.0369 24.426 23.1828 26.0629 22.0716C28.2214 20.5891 29.8441 18.6752 30.577 16.1501C31.7436 12.1438 30.6756 8.89169 27.6844 6.54865C26.2221 5.40314 24.4557 4.92437 22.6014 4.8428C19.0115 4.68558 15.7376 5.78853 12.6229 7.43054C9.95481 8.83731 7.69539 10.7583 5.74246 13.0576C3.57841 15.5772 2.11073 18.6141 1.48378 21.8694C1.41488 22.2241 1.36499 22.5787 1.28421 23.0646C0.193705 21.1081 -0.249389 19.206 0.137872 17.1077C0.80548 13.5021 2.52321 10.4699 5.06891 7.8774C7.83794 5.05796 11.1582 3.11331 14.849 1.72191C16.9489 0.91309 19.1449 0.37748 21.3826 0.128361C25.1768 -0.268843 28.8427 0.219386 32.2128 2.10493C33.0681 2.5837 33.7381 3.37929 34.5684 3.91244C35.3988 4.4456 35.9416 5.23883 36.456 6.02969C37.7734 8.05709 37.9136 10.302 37.4586 12.5954C36.8456 15.6938 35.3904 18.4021 33.3116 20.7605C32.41 21.7831 31.3658 22.6863 30.3561 23.6107C27.6167 26.1169 24.3405 27.5769 20.734 28.2767C18.0017 28.8063 15.3016 28.6727 12.9911 26.8806C12.1917 26.2599 11.5858 25.3934 10.8921 24.6345L11.0513 24.4607Z" fill="white"/>
</svg>
