<svg width="1444" height="52" viewBox="0 0 1444 52" fill="none" xmlns="http://www.w3.org/2000/svg">
<mask id="mask0" mask-type="alpha" maskUnits="userSpaceOnUse" x="0" y="0" width="1444" height="52">
<rect width="1444" height="52" rx="26" fill="#C4C4C4"/>
</mask>
<g mask="url(#mask0)">
<path d="M-1505.11 -2.64416C-1432 -20.2713 -1359.84 -20.2713 -1288.65 -2.64416C-1217.45 14.983 -1145.3 14.983 -1072.18 -2.64416C-999.062 -20.2713 -926.906 -20.2713 -855.712 -2.64416C-784.519 14.983 -712.363 14.983 -639.245 -2.64416C-566.127 -20.2713 -493.971 -20.2713 -422.777 -2.64416C-351.584 14.983 -279.428 14.983 -206.31 -2.64416C-133.192 -20.2713 -61.0361 -20.2713 10.1576 -2.64416C81.3514 14.983 153.507 14.983 226.625 -2.64416C299.743 -20.2713 371.899 -20.2713 443.093 -2.64416C514.286 14.983 586.442 14.983 659.56 -2.64416C732.678 -20.2713 804.834 -20.2713 876.028 -2.64416C947.221 14.983 1019.38 14.983 1092.5 -2.64416C1165.61 -20.2713 1237.77 -20.2713 1308.96 -2.64416C1380.16 14.983 1452.31 14.983 1525.43 -2.64416C1598.55 -20.2713 1670.7 -20.2713 1741.9 -2.64416C1813.09 14.983 1885.25 14.983 1958.36 -2.64416C2031.48 -20.2713 2103.64 -20.2713 2174.83 -2.64416C2246.03 14.983 2318.18 14.983 2391.3 -2.64416C2464.42 -20.2713 2536.57 -20.2713 2607.77 -2.64416C2678.96 14.983 2751.12 14.983 2824.23 -2.64416C2897.35 -20.2713 2969.51 -20.2713 3040.7 -2.64416C3111.9 14.983 3184.05 14.983 3257.17 -2.64416" stroke="#779555" stroke-opacity="0.2" stroke-width="10"/>
<path d="M-1505.11 23.7966C-1432 6.16951 -1359.84 6.16951 -1288.65 23.7966C-1217.45 41.4238 -1145.3 41.4238 -1072.18 23.7966C-999.062 6.16951 -926.906 6.16951 -855.712 23.7966C-784.519 41.4238 -712.363 41.4238 -639.245 23.7966C-566.127 6.16951 -493.971 6.16951 -422.777 23.7966C-351.584 41.4238 -279.428 41.4238 -206.31 23.7966C-133.192 6.16951 -61.0361 6.16951 10.1576 23.7966C81.3514 41.4238 153.507 41.4238 226.625 23.7966C299.743 6.16951 371.899 6.16951 443.093 23.7966C514.286 41.4238 586.442 41.4238 659.56 23.7966C732.678 6.16951 804.834 6.16951 876.028 23.7966C947.221 41.4238 1019.38 41.4238 1092.5 23.7966C1165.61 6.16951 1237.77 6.16951 1308.96 23.7966C1380.16 41.4238 1452.31 41.4238 1525.43 23.7966C1598.55 6.16951 1670.7 6.16951 1741.9 23.7966C1813.09 41.4238 1885.25 41.4238 1958.36 23.7966C2031.48 6.16951 2103.64 6.16951 2174.83 23.7966C2246.03 41.4238 2318.18 41.4238 2391.3 23.7966C2464.42 6.16951 2536.57 6.16951 2607.77 23.7966C2678.96 41.4238 2751.12 41.4238 2824.23 23.7966C2897.35 6.16951 2969.51 6.16951 3040.7 23.7966C3111.9 41.4238 3184.05 41.4238 3257.17 23.7966" stroke="#779555" stroke-opacity="0.2" stroke-width="10"/>
<path d="M-1505.11 23.7966C-1432 6.16951 -1359.84 6.16951 -1288.65 23.7966C-1217.45 41.4238 -1145.3 41.4238 -1072.18 23.7966C-999.062 6.16951 -926.906 6.16951 -855.712 23.7966C-784.519 41.4238 -712.363 41.4238 -639.245 23.7966C-566.127 6.16951 -493.971 6.16951 -422.777 23.7966C-351.584 41.4238 -279.428 41.4238 -206.31 23.7966C-133.192 6.16951 -61.0361 6.16951 10.1576 23.7966C81.3514 41.4238 153.507 41.4238 226.625 23.7966C299.743 6.16951 371.899 6.16951 443.093 23.7966C514.286 41.4238 586.442 41.4238 659.56 23.7966C732.678 6.16951 804.834 6.16951 876.028 23.7966C947.221 41.4238 1019.38 41.4238 1092.5 23.7966C1165.61 6.16951 1237.77 6.16951 1308.96 23.7966C1380.16 41.4238 1452.31 41.4238 1525.43 23.7966C1598.55 6.16951 1670.7 6.16951 1741.9 23.7966C1813.09 41.4238 1885.25 41.4238 1958.36 23.7966C2031.48 6.16951 2103.64 6.16951 2174.83 23.7966C2246.03 41.4238 2318.18 41.4238 2391.3 23.7966C2464.42 6.16951 2536.57 6.16951 2607.77 23.7966C2678.96 41.4238 2751.12 41.4238 2824.23 23.7966C2897.35 6.16951 2969.51 6.16951 3040.7 23.7966C3111.9 41.4238 3184.05 41.4238 3257.17 23.7966" stroke="#779555" stroke-opacity="0.2" stroke-width="10"/>
<path d="M-1505.11 50.2372C-1432 32.6101 -1359.84 32.6101 -1288.65 50.2372C-1217.45 67.8643 -1145.3 67.8643 -1072.18 50.2372C-999.062 32.6101 -926.906 32.6101 -855.712 50.2372C-784.519 67.8643 -712.363 67.8643 -639.245 50.2372C-566.127 32.6101 -493.971 32.6101 -422.777 50.2372C-351.584 67.8643 -279.428 67.8643 -206.31 50.2372C-133.192 32.6101 -61.0361 32.6101 10.1576 50.2372C81.3514 67.8643 153.507 67.8643 226.625 50.2372C299.743 32.6101 371.899 32.6101 443.093 50.2372C514.286 67.8643 586.442 67.8643 659.56 50.2372C732.678 32.6101 804.834 32.6101 876.028 50.2372C947.221 67.8643 1019.38 67.8643 1092.5 50.2372C1165.61 32.6101 1237.77 32.6101 1308.96 50.2372C1380.16 67.8643 1452.31 67.8643 1525.43 50.2372C1598.55 32.6101 1670.7 32.6101 1741.9 50.2372C1813.09 67.8643 1885.25 67.8643 1958.36 50.2372C2031.48 32.6101 2103.64 32.6101 2174.83 50.2372C2246.03 67.8643 2318.18 67.8643 2391.3 50.2372C2464.42 32.6101 2536.57 32.6101 2607.77 50.2372C2678.96 67.8643 2751.12 67.8643 2824.23 50.2372C2897.35 32.6101 2969.51 32.6101 3040.7 50.2372C3111.9 67.8643 3184.05 67.8643 3257.17 50.2372" stroke="#779555" stroke-opacity="0.2" stroke-width="10"/>
</g>
</svg>
