<svg width="173" height="119" viewBox="0 0 173 119" fill="none" xmlns="http://www.w3.org/2000/svg">
<path d="M111.79 116.04C143.193 116.04 168.65 90.5829 168.65 59.18C168.65 27.7771 143.193 2.32001 111.79 2.32001C80.387 2.32001 54.9299 27.7771 54.9299 59.18C54.9299 90.5829 80.387 116.04 111.79 116.04Z" fill="#006849"/>
<path d="M39.15 96.38C59.6949 96.38 76.35 79.725 76.35 59.18C76.35 38.635 59.6949 21.98 39.15 21.98C18.605 21.98 1.94995 38.635 1.94995 59.18C1.94995 79.725 18.605 96.38 39.15 96.38Z" fill="#EDB627"/>
<path d="M8.76997 61.79C8.98997 63.59 10.48 64.79 12.64 64.79C13.9027 64.815 15.1281 64.3613 16.07 63.52L17.68 65.08C17.0069 65.7346 16.2101 66.2487 15.3362 66.5921C14.4623 66.9354 13.5287 67.1013 12.59 67.08C8.69997 67.08 6.20997 64.61 6.20997 60.82C6.17403 59.9959 6.31072 59.1734 6.61126 58.4052C6.9118 57.637 7.36957 56.9401 7.9552 56.3592C8.54083 55.7782 9.24141 55.3261 10.012 55.0318C10.7826 54.7374 11.6062 54.6074 12.43 54.65C16.25 54.65 18.84 56.98 18.43 61.8L8.76997 61.79ZM16 59.7C15.86 57.83 14.49 56.84 12.5 56.84C11.6429 56.7839 10.795 57.044 10.1168 57.571C9.43858 58.0981 8.97719 58.8556 8.81997 59.7H16Z" fill="white"/>
<path d="M31.5999 54.95H33.9999V66.78H31.6499L31.5299 64.86C31.1031 65.555 30.5021 66.1264 29.7864 66.5175C29.0708 66.9087 28.2653 67.106 27.4499 67.09C23.9899 67.09 21.3799 64.88 21.3799 60.85C21.3277 60.0305 21.4499 59.2092 21.7383 58.4404C22.0268 57.6715 22.4749 56.9726 23.0532 56.3895C23.6315 55.8065 24.3268 55.3527 25.0933 55.058C25.8597 54.7634 26.68 54.6345 27.4999 54.68C28.2952 54.6576 29.0826 54.8433 29.7842 55.2186C30.4857 55.594 31.0771 56.146 31.4999 56.82L31.5999 54.95ZM23.8499 60.85C23.8205 61.3666 23.8989 61.8837 24.0802 62.3683C24.2614 62.853 24.5415 63.2946 24.9027 63.6652C25.2638 64.0357 25.6981 64.3271 26.178 64.5208C26.6578 64.7144 27.1727 64.8061 27.6899 64.79C32.7999 64.79 32.7999 56.94 27.6899 56.94C27.175 56.9227 26.6621 57.0125 26.1837 57.2038C25.7053 57.3951 25.2718 57.6837 24.9108 58.0513C24.5498 58.4189 24.2691 58.8575 24.0865 59.3393C23.9038 59.821 23.8233 60.3355 23.8499 60.85Z" fill="white"/>
<path d="M40.8601 54.95L41.0001 56.51C41.3454 55.9057 41.8568 55.413 42.4736 55.0905C43.0903 54.7679 43.7867 54.6289 44.4801 54.69C45.5439 54.6689 46.5811 55.0229 47.4101 55.69L46.2801 57.85C45.8044 57.4645 45.2292 57.2217 44.6211 57.1497C44.0131 57.0776 43.3971 57.1794 42.8445 57.4431C42.2919 57.7069 41.8254 58.1218 41.4989 58.6398C41.1725 59.1578 40.9995 59.7577 41.0001 60.37V66.78H38.5601V54.95H40.8601Z" fill="white"/>
<path d="M54.1301 51.54V55H57.5901V57.14H54.1101V62.78C54.1101 64.03 54.6601 64.72 55.8101 64.72C56.3375 64.6963 56.8532 64.5563 57.3201 64.31L58.0001 66.39C57.2585 66.7382 56.4494 66.9191 55.6301 66.92C53.0601 66.99 51.6301 65.53 51.6301 62.74V57.11H49.3601V55H51.6401V51.8L54.1301 51.54Z" fill="white"/>
<path d="M63.76 50V56.7C64.1875 56.0834 64.7634 55.5843 65.4344 55.2488C66.1055 54.9133 66.8503 54.752 67.6 54.78C70.94 54.78 72.47 57.01 72.47 60.4V66.78H70V60.42C70 58.19 68.85 57.08 67 57.08C66.5513 57.0886 66.1089 57.1879 65.6995 57.3718C65.2901 57.5557 64.9221 57.8204 64.6176 58.1501C64.3131 58.4799 64.0784 58.8677 63.9276 59.2904C63.7768 59.7132 63.713 60.162 63.74 60.61V66.78H61.29V50H63.76Z" fill="white"/>
<path d="M90.6901 65.24C90.1086 65.8399 89.4099 66.3136 88.6374 66.6319C87.865 66.9502 87.0353 67.1061 86.2001 67.09C85.3715 67.1382 84.5422 67.0102 83.7668 66.7144C82.9914 66.4186 82.2875 65.9617 81.7016 65.3739C81.1157 64.7862 80.6611 64.0808 80.3678 63.3045C80.0745 62.5281 79.9492 61.6984 80.0001 60.87C80.0001 56.79 82.8101 54.65 86.2401 54.65C87.0341 54.6304 87.8237 54.7758 88.5587 55.077C89.2937 55.3782 89.9581 55.8287 90.5101 56.4L88.9301 58.06C88.2008 57.3648 87.2275 56.9841 86.2201 57C85.7108 56.9826 85.2035 57.0714 84.7305 57.2608C84.2574 57.4501 83.829 57.736 83.4724 58.1C83.1159 58.4641 82.8391 58.8984 82.6596 59.3753C82.4802 59.8522 82.402 60.3612 82.4301 60.87C82.3969 61.376 82.4713 61.8832 82.6483 62.3584C82.8253 62.8335 83.101 63.2658 83.4572 63.6267C83.8134 63.9875 84.2419 64.2689 84.7147 64.4522C85.1875 64.6355 85.6937 64.7165 86.2001 64.69C86.7169 64.7051 87.2314 64.6155 87.7126 64.4264C88.1938 64.2374 88.6318 63.9529 89.0001 63.59L90.6901 65.24Z" fill="white"/>
<path d="M103.31 54.95H105.71V66.78H103.36L103.24 64.86C102.813 65.555 102.212 66.1264 101.497 66.5175C100.781 66.9087 99.9755 67.106 99.1601 67.09C95.7001 67.09 93.0901 64.88 93.0901 60.85C93.038 60.0305 93.1601 59.2092 93.4486 58.4404C93.737 57.6715 94.1851 56.9726 94.7634 56.3895C95.3417 55.8065 96.037 55.3527 96.8035 55.058C97.57 54.7634 98.3902 54.6345 99.2101 54.68C100.005 54.6576 100.793 54.8433 101.494 55.2186C102.196 55.594 102.787 56.146 103.21 56.82L103.31 54.95ZM95.5601 60.85C95.5307 61.3666 95.6091 61.8837 95.7904 62.3683C95.9716 62.853 96.2517 63.2946 96.6129 63.6652C96.974 64.0357 97.4083 64.3271 97.8882 64.5208C98.368 64.7144 98.8829 64.8061 99.4001 64.79C104.51 64.79 104.51 56.94 99.4001 56.94C98.8852 56.9227 98.3723 57.0125 97.8939 57.2038C97.4155 57.3951 96.9821 57.6837 96.621 58.0513C96.26 58.4189 95.9793 58.8575 95.7967 59.3393C95.6141 59.821 95.5335 60.3355 95.5601 60.85Z" fill="white"/>
<path d="M110.27 72.28V54.95H112.6L112.74 56.87C113.202 56.1908 113.826 55.6375 114.556 55.2604C115.286 54.8832 116.099 54.694 116.92 54.71C117.728 54.688 118.533 54.8339 119.282 55.1385C120.031 55.443 120.709 55.8996 121.273 56.4794C121.837 57.0592 122.274 57.7496 122.558 58.5071C122.841 59.2645 122.965 60.0725 122.92 60.88C122.92 64.46 120.62 67.05 116.92 67.05C116.112 67.0901 115.307 66.9282 114.577 66.579C113.847 66.2298 113.216 65.7043 112.74 65.05V72.27L110.27 72.28ZM120.42 60.88C120.42 60.3902 120.324 59.9051 120.136 59.4526C119.949 59 119.674 58.5888 119.328 58.2425C118.981 57.8961 118.57 57.6214 118.117 57.4339C117.665 57.2465 117.18 57.15 116.69 57.15C116.2 57.15 115.715 57.2465 115.263 57.4339C114.81 57.6214 114.399 57.8961 114.053 58.2425C113.706 58.5888 113.431 59 113.244 59.4526C113.056 59.9051 112.96 60.3902 112.96 60.88C112.945 61.3749 113.031 61.8677 113.212 62.3285C113.393 62.7894 113.665 63.2087 114.013 63.5612C114.361 63.9136 114.777 64.1918 115.235 64.379C115.693 64.5661 116.185 64.6583 116.68 64.65C117.179 64.667 117.676 64.5806 118.141 64.3962C118.605 64.2117 119.026 63.9332 119.377 63.5782C119.728 63.2231 120.002 62.7993 120.182 62.3332C120.361 61.8671 120.442 61.3689 120.42 60.87V60.88Z" fill="white"/>
<path d="M129.52 51.47C129.489 51.8557 129.314 52.2156 129.029 52.478C128.745 52.7403 128.372 52.886 127.985 52.886C127.598 52.886 127.225 52.7403 126.941 52.478C126.656 52.2156 126.481 51.8557 126.45 51.47C126.481 51.0843 126.656 50.7245 126.941 50.4621C127.225 50.1997 127.598 50.054 127.985 50.054C128.372 50.054 128.745 50.1997 129.029 50.4621C129.314 50.7245 129.489 51.0843 129.52 51.47ZM126.74 54.9V66.78H129.21V54.9H126.74Z" fill="white"/>
<path d="M137.58 51.54V55H141V57.14H137.52V62.78C137.52 64.03 138.07 64.72 139.22 64.72C139.747 64.6963 140.263 64.5563 140.73 64.31L141.45 66.42C140.705 66.7693 139.893 66.9503 139.07 66.95C136.5 67.02 135.07 65.56 135.07 62.77V57.11H132.8V55H135.08V51.8L137.58 51.54Z" fill="white"/>
<path d="M154.24 54.95H156.64V66.78H154.29L154.17 64.86C153.743 65.555 153.142 66.1264 152.427 66.5175C151.711 66.9087 150.905 67.106 150.09 67.09C146.63 67.09 144.02 64.88 144.02 60.85C143.968 60.0305 144.09 59.2092 144.378 58.4404C144.667 57.6715 145.115 56.9726 145.693 56.3895C146.272 55.8065 146.967 55.3527 147.733 55.058C148.5 54.7634 149.32 54.6345 150.14 54.68C150.935 54.6576 151.723 54.8433 152.424 55.2186C153.126 55.594 153.717 56.146 154.14 56.82L154.24 54.95ZM146.49 60.85C146.461 61.3666 146.539 61.8837 146.72 62.3683C146.902 62.853 147.182 63.2946 147.543 63.6652C147.904 64.0357 148.338 64.3271 148.818 64.5208C149.298 64.7144 149.813 64.8061 150.33 64.79C155.44 64.79 155.44 56.94 150.33 56.94C149.814 56.9213 149.3 57.0101 148.821 57.2007C148.341 57.3914 147.906 57.6798 147.544 58.0475C147.182 58.4153 146.901 58.8543 146.717 59.3368C146.534 59.8193 146.453 60.3346 146.48 60.85H146.49Z" fill="white"/>
<path d="M163.76 50V66.78H161.29V50H163.76Z" fill="white"/>
</svg>
